<svg xmlns="http://www.w3.org/2000/svg" width="628.643" height="189.467" viewBox="0 0 628.643 189.467">
  <g id="pasted-svg-41984x137" transform="translate(0 0.964)">
    <g id="Group_1" data-name="Group 1">
      <path id="Path_2" data-name="Path 2" d="M49.809,138.284a133.17,133.17,0,0,1-39.556-5.86,3.228,3.228,0,0,1-2.442-3.092.985.985,0,0,1,.162-.651l1.954-9.44a2.594,2.594,0,0,1,2.606-1.954,1.461,1.461,0,0,1,.813.163c3.419.651,20.023,5.371,36.464,5.371,13.837,0,27.185-4.4,27.185-19.7,0-15.138-12.86-16.767-29.626-19.208-18.07-2.444-40.859-7-40.859-34.511,0-28,21.649-35,45.742-35a141.561,141.561,0,0,1,37.928,5.535,3.21,3.21,0,0,1,2.606,3.092v.813L90.668,33.29a2.7,2.7,0,0,1-2.6,1.791h-.325c-6.023-1.3-19.045-5.047-34.673-5.047-12.7,0-26.859,2.767-26.859,17.417,0,14.813,14.651,17.092,29.626,19.371,19.208,2.6,41.347,4.883,41.347,34.834C97.179,130.309,73.739,138.284,49.809,138.284Z" transform="translate(-6.509 -14.08)" fill="#222aa5"/>
      <path id="Path_3" data-name="Path 3" d="M122.556,130.221a2.548,2.548,0,0,1-1.791,2.279,71.059,71.059,0,0,1-20.185,2.929c-17.417,0-26.207-7-26.207-24.416V25.064c0-1.791.813-2.442,2.6-2.767l13.185-2.767h.651a2.15,2.15,0,0,1,2.116,2.442V48.342h24.743a2.308,2.308,0,0,1,2.442,2.442v8.953a2.308,2.308,0,0,1-2.442,2.442H92.928v49c0,7.814,3.582,10.581,12.046,10.581a66.255,66.255,0,0,0,13.349-1.791h.488a2.064,2.064,0,0,1,1.954,1.628l1.628,7.977A1.215,1.215,0,0,1,122.556,130.221Z" transform="translate(29.157 -11.389)" fill="#222aa5"/>
      <path id="Path_4" data-name="Path 4" d="M171.1,124.443a96.707,96.707,0,0,1-21.976,2.279c-16.279,0-38.58-1.3-38.58-27.347,0-21.326,12.7-23.115,27.022-25.558l29.626-4.883V62.911c0-4.883-.325-8.465-5.047-10.418-2.767-1.14-7-1.628-13.349-1.628-11.721,0-23.278,3.256-28.813,4.558-.325,0-.651.163-1.14.163a1.55,1.55,0,0,1-1.628-1.3l-1.954-9.115v-.488a2.32,2.32,0,0,1,1.791-2.279c4.558-1.628,19.045-5.371,35-5.371,11.558,0,19.208,1.628,24.253,4.4,8.465,4.72,9.278,12.371,9.278,21v45.091C185.586,119.4,182.332,121.838,171.1,124.443Zm-3.907-42.65L143.262,85.7c-7,1.14-13.835,1.791-13.835,13.349,0,14,11.394,14.975,20.185,14.975a55.572,55.572,0,0,0,17.579-2.6V81.793Z" transform="translate(48.167 -2.191)" fill="#222aa5"/>
      <path id="Path_5" data-name="Path 5" d="M241.024,124.607h-13.51a2.355,2.355,0,0,1-2.606-2.442V63.725c0-10.093-3.745-13.349-13.349-13.349A103.084,103.084,0,0,0,187.467,53.8v68.369a2.308,2.308,0,0,1-2.442,2.442h-13.51a2.44,2.44,0,0,1-2.6-2.442V52.981c0-6.186,2.116-8.627,10.906-11.394,8.3-2.442,22.952-4.558,33.37-4.558,19.861,0,30.279,5.535,30.279,24.255v60.882A2.307,2.307,0,0,1,241.024,124.607Z" transform="translate(78.841 -2.192)" fill="#222aa5"/>
      <path id="Path_6" data-name="Path 6" d="M291.77,135.305a100.222,100.222,0,0,1-26.209,3.419c-31.744,0-40.859-12.371-40.859-44.6,0-29.789,7.977-45.091,36.789-45.091a93.82,93.82,0,0,1,23.6,3.092l-1.628-9.6V19.729a2.626,2.626,0,0,1,2.442-2.931L299.1,14.193h.651a2.151,2.151,0,0,1,2.116,2.442V122.608C301.861,127.654,301.536,132.7,291.77,135.305Zm-8.3-70.648A83.738,83.738,0,0,0,265.4,62.378c-15.465,0-21.814,4.069-21.814,31.254,0,28.65,7.489,31.742,22.3,31.742a73.069,73.069,0,0,0,17.58-2.279Z" transform="translate(108.163 -14.193)" fill="#222aa5"/>
    </g>
    <g id="Group_2" data-name="Group 2" transform="translate(277.757 143.495)">
      <path id="Path_7" data-name="Path 7" d="M202.609,124.778a.942.942,0,0,1-.926.787H189.368a.765.765,0,0,1-.789-.694.159.159,0,0,0,.047-.093l.278-2.593a1,1,0,0,1,.972-.787h12.316a.694.694,0,0,1,.741.7v.093Z" transform="translate(-188.579 -101.347)"/>
      <path id="Path_8" data-name="Path 8" d="M220.726,138.712a1.128,1.128,0,0,1-1.018.741h-7.037a.81.81,0,0,1-.833-.741l-4.352-22.595v-.139a.756.756,0,0,1,.741-.833h3.936c.51,0,.694.232.787.694l3.1,20.14h1.205l7.5-20.14a.95.95,0,0,1,.973-.694h4.075a.56.56,0,0,1,.6.6.589.589,0,0,1-.046.278Z" transform="translate(-178.642 -104.632)"/>
      <path id="Path_9" data-name="Path 9" d="M227.647,142.38a.763.763,0,0,1-.787.694h-3.8a.574.574,0,0,1-.648-.6v-.093l2.778-22.688a.811.811,0,0,1,.833-.648h3.8a.549.549,0,0,1,.6.555v.093Zm3.425-28.059a.989.989,0,0,1-1.065.926h-3.288c-.555,0-.833-.232-.833-.74v-.186l.6-5.14a1,1,0,0,1,1.112-.926h3.286c.555,0,.833.278.833.74v.186Z" transform="translate(-170.797 -108.253)"/>
      <path id="Path_10" data-name="Path 10" d="M256.419,118.963a.532.532,0,0,1-.555.416h-.139a35.275,35.275,0,0,0-6.2-.787,7.3,7.3,0,0,0-4.259,1.018,3.03,3.03,0,0,0-1.3,2.639,2.33,2.33,0,0,0,1.806,2.316,15.249,15.249,0,0,0,3.147.6c2.038.323,4.121.648,5.51,1.806a5.176,5.176,0,0,1,1.713,4.352,8.619,8.619,0,0,1-2.5,6.343c-2.037,1.945-5.185,2.593-8.612,2.593a23.957,23.957,0,0,1-8.15-1.481c-.185-.093-.416-.186-.416-.464a1.14,1.14,0,0,1,.093-.323l.787-2.314c.093-.325.278-.51.555-.51a.415.415,0,0,1,.23.046,24.745,24.745,0,0,0,7.037,1.2,6.979,6.979,0,0,0,4.305-1.112,3.477,3.477,0,0,0,1.3-2.917,2.191,2.191,0,0,0-1.62-2.362,31.986,31.986,0,0,0-3.288-.648,13,13,0,0,1-4.953-1.481,5.027,5.027,0,0,1-2.268-4.583,8.056,8.056,0,0,1,2.316-5.927c2.223-2.177,5.648-2.639,8.38-2.639a27.328,27.328,0,0,1,7.408,1.018.461.461,0,0,1,.416.51v.186Z" transform="translate(-163.413 -104.839)"/>
      <path id="Path_11" data-name="Path 11" d="M272.615,130.586h-.232v.833a4.341,4.341,0,0,0,1.991,4.075,9.879,9.879,0,0,0,4.862.972,28.057,28.057,0,0,0,6.805-1.158.423.423,0,0,1,.232-.046c.232,0,.416.139.508.555l.371,2.175v.139a.7.7,0,0,1-.555.694,27.932,27.932,0,0,1-8.889,1.436c-6.25,0-8.056-2.593-8.8-4.491-1.62,2.407-3.889,4.491-9.26,4.491a14.311,14.311,0,0,1-6.389-1.158c-1.759-.972-2.871-2.593-2.871-5.463a8.687,8.687,0,0,1,1.852-5.695c1.481-1.666,3.75-2.269,6.389-2.732l9.353-1.713a9.84,9.84,0,0,0,.093-1.156,3.856,3.856,0,0,0-.51-1.991c-.694-1.2-2.177-1.667-4.305-1.667a46.126,46.126,0,0,0-8.751,1.3c-.046,0-.093.046-.139.046-.279,0-.464-.232-.51-.555l-.186-2.362v-.093c0-.416.232-.555.6-.741a35.012,35.012,0,0,1,9.4-1.527c3.335,0,7.085.833,7.779,4.259,1.666-2.732,3.982-4.259,8.612-4.259,5.463,0,9.584,1.481,9.584,7.64C289.654,130.03,283.588,130.586,272.615,130.586Zm-11.806-2.268c-1.666.323-3.149.694-4.073,1.759a4.855,4.855,0,0,0-.973,3.1,3.024,3.024,0,0,0,1.3,2.639,6.358,6.358,0,0,0,3.565.833,6.071,6.071,0,0,0,4.908-1.9,8.589,8.589,0,0,0,1.713-4.63l.371-3.1Zm18.8-9.815c-5.371,0-6.575,4.214-6.9,8.658,7.733-.464,11.806,0,11.806-4.537C284.514,119.612,282.523,118.5,279.606,118.5Z" transform="translate(-156.095 -104.841)"/>
      <path id="Path_12" data-name="Path 12" d="M286.614,142.239a.686.686,0,0,1-.464.648,10.738,10.738,0,0,1-3.889.6,5.325,5.325,0,0,1-3.843-1.2,4.01,4.01,0,0,1-1.2-3.147,29.222,29.222,0,0,1,.325-3.519l3.194-25.835a.77.77,0,0,1,.74-.787l3.89-.74h.185a.5.5,0,0,1,.51.555v.139l-3.288,26.577a21.673,21.673,0,0,0-.232,2.5,1.875,1.875,0,0,0,.323,1.112,2.1,2.1,0,0,0,1.39.462,6.513,6.513,0,0,0,1.62-.185h.185c.232,0,.371.093.417.416l.139,2.316v.088Z" transform="translate(-141.996 -108.252)"/>
      <path id="Path_13" data-name="Path 13" d="M311.984,118.057c0,.139-.046.23-.323.416a6.248,6.248,0,0,1-3.381,1.019,8.187,8.187,0,0,1-1.852-.278,5.042,5.042,0,0,1,1.39,3.7,9.384,9.384,0,0,1-2.175,5.973c-2.037,2.177-5.185,2.917-8.982,2.917-1.713,0-1.852.046-3.1.046-1.436,0-2.175.464-2.546,1.158a2.931,2.931,0,0,0-.323,1.39,1.525,1.525,0,0,0,.6,1.3,4.608,4.608,0,0,0,2.546.464h5.834c2.592,0,4.908.462,6.25,1.806a4.5,4.5,0,0,1,1.158,3.288,8.458,8.458,0,0,1-1.759,5.047c-2.175,2.639-6.111,3.657-10.88,3.657-3.936,0-6.853-.371-8.659-1.343a4.062,4.062,0,0,1-2.223-3.936,5.875,5.875,0,0,1,.972-3.381c1.158-1.574,3.056-1.9,4.539-2.223l.093-.648a6.374,6.374,0,0,1-2.871-.972,2.494,2.494,0,0,1-.787-1.991,5.39,5.39,0,0,1,.787-3.056c.88-1.249,2.5-1.713,4.723-2.084a5.968,5.968,0,0,1-3.379-2.084,5.245,5.245,0,0,1-.972-3.379,11.139,11.139,0,0,1,1.806-6.159c1.991-2.778,5.509-3.843,9.908-3.843a16.508,16.508,0,0,1,5.786.926,6.264,6.264,0,0,0,1.713.186,9.154,9.154,0,0,0,2.223-.278,26.49,26.49,0,0,0,2.546-1.019,1.966,1.966,0,0,1,.371-.139c.139,0,.278.093.323.371l.6,2.917A.528.528,0,0,1,311.984,118.057ZM301.1,140.789a5.259,5.259,0,0,0-3.056-.6h-4.862c-1.62,0-3.335.325-4.075,1.852a4.1,4.1,0,0,0-.323,1.666,2.146,2.146,0,0,0,1.2,2.084,11.016,11.016,0,0,0,4.955.741c2.082,0,4.49-.278,5.879-1.574a3.66,3.66,0,0,0,1.018-2.5A1.807,1.807,0,0,0,301.1,140.789Zm.833-21.437c-.787-.833-2.084-1.2-3.889-1.2-2.592,0-4.352.741-5.324,2.5a8.519,8.519,0,0,0-.833,3.89,3.853,3.853,0,0,0,1.018,2.87,5.686,5.686,0,0,0,3.844,1.065c2.5,0,4.166-.648,5.185-2.268a7.971,7.971,0,0,0,.972-4.027A3.808,3.808,0,0,0,301.937,119.352Z" transform="translate(-138.663 -104.951)"/>
      <path id="Path_14" data-name="Path 14" d="M306.756,130.586h-.23v.555c0,.139-.046.232-.046.323a4.239,4.239,0,0,0,1.944,4.029,9.883,9.883,0,0,0,4.862.972,28.083,28.083,0,0,0,6.807-1.158.421.421,0,0,1,.23-.046c.232,0,.416.139.51.555l.371,2.175v.139a.7.7,0,0,1-.6.694,27.446,27.446,0,0,1-8.844,1.436c-8.935,0-10.511-4.676-10.511-10.047,0-4.955,1.574-9.908,3.611-12.177,2.13-2.362,5.371-3.288,9.26-3.288,5.463,0,9.584,1.481,9.584,7.64C323.7,130.03,317.731,130.586,306.756,130.586Zm6.9-12.131c-5.371,0-6.482,4.259-6.806,8.7,7.732-.464,11.713,0,11.713-4.537C318.564,119.612,316.573,118.455,313.656,118.455Z" transform="translate(-129.367 -104.84)"/>
      <path id="Path_15" data-name="Path 15" d="M332.234,118.207c-.046.371-.139.694-.694.694a30.473,30.473,0,0,0-7.178.741l-2.407,19.307a.72.72,0,0,1-.741.694H317.37c-.139,0-.648-.232-.648-.648v-.046l2.453-19.724c.23-1.9,1.065-2.453,3.147-3.149a29.376,29.376,0,0,1,8.011-1.3h.787a3.023,3.023,0,0,1,1.065.093.526.526,0,0,1,.416.555c0,.046-.046.093-.046.139Z" transform="translate(-121.233 -104.824)"/>
      <path id="Path_16" data-name="Path 16" d="M354.963,112.053c-.139.371-.278.555-.648.555h-.139a21.113,21.113,0,0,0-3.843-.462c-2.316,0-3.472.555-3.8,2.87l-.464,3.75h6.436a.561.561,0,0,1,.6.6v.093l-.325,2.546a.763.763,0,0,1-.787.694h-6.389l-2.825,22.918c-.694,5.463-4.073,7.176-8.842,7.176a22.252,22.252,0,0,1-2.917-.139c-.323-.046-.741-.139-.741-.648v-.139l.279-2.084c.093-.7.462-.787.879-.787h1.62c2.685,0,4.12-.464,4.491-3.565l2.824-22.734h-3.611a.6.6,0,0,1-.648-.6.147.147,0,0,1,.046-.093l.279-2.546a.762.762,0,0,1,.787-.694h3.611l.464-3.657c.555-4.676,3.147-6.853,8.1-6.853a21.245,21.245,0,0,1,5.695.74.624.624,0,0,1,.51.555.279.279,0,0,1-.046.185Z" transform="translate(-114.105 -108.254)"/>
      <path id="Path_17" data-name="Path 17" d="M366.2,131.418c-1.25,5.14-4.075,8.844-12.177,8.844-3.982,0-6.436-.88-7.916-2.407-1.574-1.574-2.084-3.843-2.084-6.482a33.135,33.135,0,0,1,1.112-8.334c1.342-4.862,4.259-8.288,12.038-8.288,4.073,0,6.575.926,8.056,2.5,1.481,1.62,1.944,3.843,1.944,6.482A35.664,35.664,0,0,1,366.2,131.418Zm-5.324-11.483c-.741-.926-2.038-1.388-4.166-1.388-4.166,0-5.6,1.806-6.343,5a39.9,39.9,0,0,0-.973,8.056c0,1.666.279,2.963,1.205,3.8a5.665,5.665,0,0,0,3.889,1.065c4.584,0,5.879-2.175,6.575-6.066a48.111,48.111,0,0,0,.74-6.714A5.659,5.659,0,0,0,360.879,119.935Z" transform="translate(-106.884 -104.84)"/>
      <path id="Path_18" data-name="Path 18" d="M375.559,118.207c-.046.371-.139.694-.694.694a30.473,30.473,0,0,0-7.178.741L365.28,138.95a.72.72,0,0,1-.741.694H360.7c-.139,0-.648-.232-.648-.648v-.046l2.453-19.724c.23-1.9,1.065-2.453,3.147-3.149a29.376,29.376,0,0,1,8.011-1.3h.787a3.023,3.023,0,0,1,1.065.093.526.526,0,0,1,.416.555c0,.046-.046.093-.046.139Z" transform="translate(-98.464 -104.824)"/>
      <path id="Path_19" data-name="Path 19" d="M398.762,138.86c-.186,1.527-.278,3.056-3.335,3.843a29.755,29.755,0,0,1-7.593.972c-4.075,0-6.76-.74-8.381-2.362-1.3-1.39-1.9-3.379-1.9-6.159a34.685,34.685,0,0,1,1.342-9.538c1.574-4.908,4.676-7.454,10.928-7.454a24.641,24.641,0,0,1,6.575.88l-.093-2.732.787-6.482a.853.853,0,0,1,.787-.833l3.843-.74h.185a.51.51,0,0,1,.555.555c0,.047-.046.093-.046.139Zm-8.288-16.9c-3.519,0-5.463.74-6.575,5a28.579,28.579,0,0,0-.973,7.222c0,2.407.417,3.8,1.249,4.63.926.926,2.362,1.065,4.214,1.065a21.551,21.551,0,0,0,5.092-.648l2.037-16.622A22.5,22.5,0,0,0,390.473,121.96Z" transform="translate(-89.262 -108.253)"/>
      <path id="Path_20" data-name="Path 20" d="M399.629,142.38a.763.763,0,0,1-.787.694h-3.8a.574.574,0,0,1-.648-.6v-.093l2.776-22.688a.812.812,0,0,1,.835-.648h3.8a.549.549,0,0,1,.6.555v.093Zm3.425-28.059a.989.989,0,0,1-1.065.926H398.7c-.555,0-.833-.232-.833-.74v-.186l.6-5.14a1,1,0,0,1,1.112-.926h3.288c.555,0,.833.278.833.74v.186Z" transform="translate(-80.41 -108.253)"/>
      <path id="Path_21" data-name="Path 21" d="M428.378,118.057c0,.139-.046.23-.325.416a6.247,6.247,0,0,1-3.379,1.019,8.176,8.176,0,0,1-1.852-.278,5.048,5.048,0,0,1,1.39,3.7,9.377,9.377,0,0,1-2.177,5.973c-2.037,2.177-5.185,2.917-8.982,2.917-1.713,0-1.852.046-3.1.046-1.436,0-2.177.464-2.546,1.158a2.913,2.913,0,0,0-.323,1.39,1.521,1.521,0,0,0,.6,1.3,4.61,4.61,0,0,0,2.546.464h5.834c2.593,0,4.908.462,6.25,1.806a4.5,4.5,0,0,1,1.158,3.288,8.457,8.457,0,0,1-1.759,5.047c-2.175,2.639-6.111,3.657-10.88,3.657-3.936,0-6.851-.371-8.657-1.343a4.062,4.062,0,0,1-2.223-3.936,5.875,5.875,0,0,1,.972-3.381c1.158-1.574,3.056-1.9,4.537-2.223l.093-.648a6.375,6.375,0,0,1-2.87-.972,2.494,2.494,0,0,1-.787-1.991,5.4,5.4,0,0,1,.787-3.056c.88-1.249,2.5-1.713,4.723-2.084a5.963,5.963,0,0,1-3.379-2.084,5.245,5.245,0,0,1-.973-3.379,11.139,11.139,0,0,1,1.806-6.159c1.991-2.778,5.51-3.843,9.908-3.843a16.5,16.5,0,0,1,5.786.926,6.257,6.257,0,0,0,1.713.186,9.164,9.164,0,0,0,2.223-.278,26.5,26.5,0,0,0,2.546-1.019,1.927,1.927,0,0,1,.371-.139c.139,0,.279.093.325.371l.6,2.917A.545.545,0,0,1,428.378,118.057ZM417.5,140.789a5.264,5.264,0,0,0-3.056-.6H409.58c-1.62,0-3.333.325-4.075,1.852a4.126,4.126,0,0,0-.323,1.666,2.143,2.143,0,0,0,1.2,2.084,11.013,11.013,0,0,0,4.953.741c2.084,0,4.491-.278,5.879-1.574a3.661,3.661,0,0,0,1.019-2.5A1.807,1.807,0,0,0,417.5,140.789Zm.833-21.437c-.787-.833-2.084-1.2-3.89-1.2-2.592,0-4.352.741-5.324,2.5a8.519,8.519,0,0,0-.833,3.89,3.86,3.86,0,0,0,1.018,2.87,5.682,5.682,0,0,0,3.843,1.065c2.5,0,4.166-.648,5.185-2.268a7.987,7.987,0,0,0,.972-4.027A3.8,3.8,0,0,0,418.33,119.352Z" transform="translate(-77.492 -104.951)"/>
    </g>
    <g id="Group_3" data-name="Group 3" transform="translate(427.424)">
      <path id="Path_22" data-name="Path 22" d="M301.661,38.774H290.1c-2.116,0-3.417-1.14-3.417-3.256V17.45c0-2.116,1.3-3.256,3.417-3.256h11.558c2.117,0,3.419,1.14,3.419,3.256V35.518C305.08,37.634,303.778,38.774,301.661,38.774Zm.978,97.834H289.29a2.354,2.354,0,0,1-2.6-2.442V54.4a2.413,2.413,0,0,1,2.6-2.279h13.349a2.27,2.27,0,0,1,2.442,2.279v79.763A2.309,2.309,0,0,1,302.639,136.607Z" transform="translate(-286.686 -14.192)" fill="rgba(255,255,255,0)" stroke="#000" stroke-linecap="round" stroke-linejoin="round" stroke-miterlimit="10" stroke-width="1.927"/>
      <path id="Path_23" data-name="Path 23" d="M382.166,124.607h-13.51a2.355,2.355,0,0,1-2.606-2.442V63.725c0-10.093-3.744-13.349-13.349-13.349A103.063,103.063,0,0,0,328.61,53.8v68.369a2.308,2.308,0,0,1-2.442,2.442h-13.51a2.44,2.44,0,0,1-2.6-2.442V52.981c0-6.186,2.116-8.627,10.906-11.394,8.3-2.442,22.952-4.558,33.371-4.558,19.86,0,30.278,5.535,30.278,24.255v60.882A2.309,2.309,0,0,1,382.166,124.607Z" transform="translate(-274.405 -2.192)" fill="none" stroke="#000" stroke-linecap="round" stroke-linejoin="round" stroke-miterlimit="10" stroke-width="1.927"/>
      <path id="Path_24" data-name="Path 24" d="M432.911,135.305a100.21,100.21,0,0,1-26.208,3.419c-31.744,0-40.859-12.371-40.859-44.6,0-29.789,7.977-45.091,36.789-45.091a93.848,93.848,0,0,1,23.6,3.092l-1.628-9.6V19.729a2.625,2.625,0,0,1,2.442-2.931l13.185-2.606h.651a2.151,2.151,0,0,1,2.116,2.442V122.608C443,127.654,442.678,132.7,432.911,135.305Zm-8.3-70.648a83.756,83.756,0,0,0-18.069-2.279c-15.465,0-21.812,4.069-21.812,31.254,0,28.65,7.487,31.742,22.3,31.742a73.068,73.068,0,0,0,17.58-2.279Z" transform="translate(-245.084 -14.193)" fill="none" stroke="#000" stroke-linecap="round" stroke-linejoin="round" stroke-miterlimit="10" stroke-width="1.927"/>
    </g>
  </g>
</svg>
